<?xml version="1.0" encoding="utf-8"?><svg xmlns="http://www.w3.org/2000/svg" xmlns:xlink="http://www.w3.org/1999/xlink" width="271" height="271" preserveAspectRatio="xMidYMid" viewBox="0 0 271 271" style="display:block;background-repeat-y:initial;background-repeat-x:initial;background-color:rgb(241, 242, 243);animation-play-state:paused" ><g transform="scale(1.06)" style="transform:matrix(1.06, 0, 0, 1.06, 0, 0);animation-play-state:paused" ><defs style="animation-play-state:paused" ><g id="id-0.3795489948169726" style="animation-play-state:paused" ><style type="text/css" style="animation-play-state:paused" >.st0{fill:#d1d1d1}.st2{fill:#464646}</style>
<path class="st0" d="M76.586,7.5H23.414c-2.711,0-4.916,2.205-4.916,4.916v55.093c0,2.711,2.205,4.916,4.916,4.916h4.874v15.466 c0,2.541,2.067,4.608,4.608,4.608h23.51c2.541,0,4.608-2.067,4.608-4.608V72.425h15.57c2.711,0,4.916-2.206,4.916-4.916V12.416 C81.502,9.705,79.296,7.5,76.586,7.5z" data-fill="c1" style="fill:rgb(133, 162, 182);animation-play-state:paused" ></path>
<g style="animation-play-state:paused" ><path class="st2" d="M68.846,18.055h-4.707c-0.901,0-1.639,0.738-1.639,1.639v5.305c0,0.902,0.738,1.639,1.639,1.639h4.707 c0.901,0,1.638-0.738,1.638-1.639v-5.305C70.484,18.793,69.747,18.055,68.846,18.055z" data-fill="c2" style="fill:rgb(187, 206, 221);animation-play-state:paused" ></path>
<path class="st2" d="M76.586,10.777H23.414c-0.901,0-1.639,0.738-1.639,1.639v55.093c0,0.901,0.737,1.638,1.639,1.638h8.152v18.744 c0,0.734,0.596,1.331,1.33,1.331h23.51c0.735,0,1.33-0.596,1.33-1.331V69.147h18.849c0.901,0,1.639-0.737,1.639-1.638V12.416 C78.225,11.515,77.487,10.777,76.586,10.777z M44.818,86.56h-10.59V57.552h10.59V86.56z M55.075,86.56H51.25V57.552h3.825V86.56z M73.291,62.575c0,0.901-0.738,1.639-1.639,1.639H57.737v-6.662h0.52c0.901,0,1.639-0.737,1.639-1.639v-2.741 c0-0.901-0.738-1.639-1.639-1.639h-26.98c-0.901,0-1.639,0.738-1.639,1.639v2.741c0,0.901,0.738,1.639,1.639,1.639h0.289v6.662 h-3.219c-0.902,0-1.639-0.737-1.639-1.639V17.349c0-0.901,0.738-1.639,1.639-1.639h43.305c0.901,0,1.639,0.738,1.639,1.639V62.575z " data-fill="c2" style="fill:rgb(187, 206, 221);animation-play-state:paused" ></path>
<path class="st2" d="M68.846,29.215h-4.707c-0.901,0-1.639,0.737-1.639,1.639v5.305c0,0.901,0.738,1.639,1.639,1.639h4.707 c0.901,0,1.638-0.738,1.638-1.639v-5.305C70.484,29.952,69.747,29.215,68.846,29.215z" data-fill="c2" style="fill:rgb(187, 206, 221);animation-play-state:paused" ></path>
<path class="st2" d="M58.591,17.401H31.277c-0.901,0-1.639,0.737-1.639,1.639v27.378c0,0.901,0.738,1.639,1.639,1.639h27.314 c0.901,0,1.638-0.738,1.638-1.639V19.04C60.229,18.138,59.492,17.401,58.591,17.401z M50.351,39.506 c-0.827,1.595-2.138,2.605-3.827,3.129c-0.433,0.135-0.566,0.327-0.562,0.774c0.015,1.67-0.002,1.67-1.656,1.664 c-0.321,0-0.643,0-1.031,0c0-0.537-0.02-0.99,0.006-1.44c0.023-0.395-0.099-0.521-0.519-0.618c-1.198-0.279-2.375-0.65-3.548-1.023 c-0.17-0.054-0.385-0.32-0.389-0.493c-0.031-1.346-0.016-2.695-0.011-4.043c0-0.054,0.045-0.108,0.07-0.165 c0.656,0.447,1.276,0.913,1.939,1.311c0.896,0.537,1.881,0.775,2.934,0.681c1.125-0.1,2.147-0.913,2.393-1.913 c0.286-1.164-0.103-2.053-1.251-2.727c-0.559-0.329-1.169-0.572-1.739-0.884c-0.741-0.405-1.497-0.795-2.192-1.27 c-3.134-2.137-2.863-7.202,0.402-9.107c0.207-0.12,0.402-0.293,0.625-0.344c1.151-0.263,1.493-0.995,1.288-2.087 c-0.031-0.165-0.004-0.342-0.004-0.567c0.894,0,1.748,0,2.673,0c0,0.606,0,1.206,0,1.701c1.177,0.384,2.259,0.742,3.344,1.088 c0.394,0.125,0.51,0.373,0.503,0.78c-0.025,1.28-0.009,2.561-0.009,4c-0.315-0.256-0.534-0.44-0.759-0.617 c-0.92-0.726-1.907-1.357-3.126-1.256c-0.554,0.046-1.153,0.266-1.612,0.581c-0.917,0.632-0.971,1.996-0.126,2.723 c0.486,0.417,1.081,0.72,1.652,1.025c0.727,0.388,1.489,0.711,2.222,1.089C51.255,33.153,51.787,36.738,50.351,39.506z" data-fill="c2" style="fill:rgb(187, 206, 221);animation-play-state:paused" ></path>
<path class="st2" d="M68.846,40.374h-4.707c-0.901,0-1.639,0.738-1.639,1.639v5.305c0,0.902,0.738,1.639,1.639,1.639h4.707 c0.901,0,1.638-0.737,1.638-1.639v-5.305C70.484,41.112,69.747,40.374,68.846,40.374z" data-fill="c2" style="fill:rgb(187, 206, 221);animation-play-state:paused" ></path>
<path class="st2" d="M68.846,51.534h-4.707c-0.901,0-1.639,0.738-1.639,1.639v5.305c0,0.901,0.738,1.639,1.639,1.639h4.707 c0.901,0,1.638-0.738,1.638-1.639v-5.305C70.484,52.271,69.747,51.534,68.846,51.534z" data-fill="c2" style="fill:rgb(187, 206, 221);animation-play-state:paused" ></path></g>
<metadata xmlns:d="https://loading.io/stock/" style="animation-play-state:paused" ><d:name style="animation-play-state:paused" >atm</d:name>
<d:tags style="animation-play-state:paused" >cashier,bank,withdraw,deposit,credit card,money,atm,map</d:tags>
<d:license style="animation-play-state:paused" >free</d:license>
<d:slug style="animation-play-state:paused" >yr6amg</d:slug></metadata></g></defs>





















<g data-idx="0" data-dup="" dx="-128" dy="-128" style="transform-origin:22.9994px 21.9992px;animation-timing-function:linear;animation-play-state:paused;animation-name:static-aaaa9710-da2d-41a2-a9b7-c5329fd7860e;animation-iteration-count:infinite;animation-fill-mode:forwards;animation-duration:0.625s" ><g transform="translate(-128,-128)" style="transform:matrix(1, 0, 0, 1, -128, -128);animation-play-state:paused" ><g transform=" translate(151,149.9995) scale(0.6222222222222222)" style="transform:matrix(0.622222, 0, 0, 0.622222, 151, 149.999);animation-play-state:paused" ><g data-icon="" transform="scale(0.9)" style="transform:matrix(0.9, 0, 0, 0.9, 0, 0);animation-play-state:paused" ><use xlink:href="#id-0.3795489948169726" x="-50" y="-50" style="animation-play-state:paused" ></use></g></g></g></g>
<g data-idx="0" data-dup="" dx="128" dy="-128" style="transform-origin:278.999px 21.9992px;animation-timing-function:linear;animation-play-state:paused;animation-name:static-aaaa9710-da2d-41a2-a9b7-c5329fd7860e;animation-iteration-count:infinite;animation-fill-mode:forwards;animation-duration:0.625s" ><g transform="translate(128,-128)" style="transform:matrix(1, 0, 0, 1, 128, -128);animation-play-state:paused" ><g transform=" translate(151,149.9995) scale(0.6222222222222222)" style="transform:matrix(0.622222, 0, 0, 0.622222, 151, 149.999);animation-play-state:paused" ><g data-icon="" transform="scale(0.9)" style="transform:matrix(0.9, 0, 0, 0.9, 0, 0);animation-play-state:paused" ><use xlink:href="#id-0.3795489948169726" x="-50" y="-50" style="animation-play-state:paused" ></use></g></g></g></g>
<g data-idx="1" data-dup="" dx="-128" dy="-128" style="transform-origin:103.301px -6.91928px;animation-timing-function:linear;animation-play-state:paused;animation-name:static-aaaa9710-da2d-41a2-a9b7-c5329fd7860e;animation-iteration-count:infinite;animation-fill-mode:forwards;animation-duration:0.625s" ><g transform="translate(-128,-128)" style="transform:matrix(1, 0, 0, 1, -128, -128);animation-play-state:paused" ><g transform="matrix(0.9628 0.2703 -0.2703 0.9628 41.3411 -58.0147) translate(231.293,121.08149999999999) scale(0.5214666666666667)" style="transform:matrix(0.502068, 0.140952, -0.140952, 0.502068, 231.302, 121.081);animation-play-state:paused" ><g data-icon="" transform="scale(0.9)" style="transform:matrix(0.9, 0, 0, 0.9, 0, 0);animation-play-state:paused" ><use xlink:href="#id-0.3795489948169726" x="-50" y="-50" style="animation-play-state:paused" ></use></g></g></g></g>
<g data-idx="1" data-dup="" dx="128" dy="-128" style="transform-origin:359.301px -6.91928px;animation-timing-function:linear;animation-play-state:paused;animation-name:static-aaaa9710-da2d-41a2-a9b7-c5329fd7860e;animation-iteration-count:infinite;animation-fill-mode:forwards;animation-duration:0.625s" ><g transform="translate(128,-128)" style="transform:matrix(1, 0, 0, 1, 128, -128);animation-play-state:paused" ><g transform="matrix(0.9628 0.2703 -0.2703 0.9628 41.3411 -58.0147) translate(231.293,121.08149999999999) scale(0.5214666666666667)" style="transform:matrix(0.502068, 0.140952, -0.140952, 0.502068, 231.302, 121.081);animation-play-state:paused" ><g data-icon="" transform="scale(0.9)" style="transform:matrix(0.9, 0, 0, 0.9, 0, 0);animation-play-state:paused" ><use xlink:href="#id-0.3795489948169726" x="-50" y="-50" style="animation-play-state:paused" ></use></g></g></g></g>
<g data-idx="2" data-dup="" dx="-128" dy="-128" style="transform-origin:11.2833px -65.9166px;animation-timing-function:linear;animation-play-state:paused;animation-name:static-aaaa9710-da2d-41a2-a9b7-c5329fd7860e;animation-iteration-count:infinite;animation-fill-mode:forwards;animation-duration:0.625s" ><g transform="translate(-128,-128)" style="transform:matrix(1, 0, 0, 1, -128, -128);animation-play-state:paused" ><g transform="matrix(-0.0456 0.999 -0.999 -0.0456 207.6542 -74.2389) translate(139.293,62.081500000000005) scale(0.5214666666666667)" style="transform:matrix(-0.0237789, 0.520945, -0.520945, -0.0237789, 139.283, 62.0839);animation-play-state:paused" ><g data-icon="" transform="scale(0.9)" style="transform:matrix(0.9, 0, 0, 0.9, 0, 0);animation-play-state:paused" ><use xlink:href="#id-0.3795489948169726" x="-50" y="-50" style="animation-play-state:paused" ></use></g></g></g></g>
<g data-idx="2" data-dup="" dx="128" dy="-128" style="transform-origin:267.283px -65.9166px;animation-timing-function:linear;animation-play-state:paused;animation-name:static-aaaa9710-da2d-41a2-a9b7-c5329fd7860e;animation-iteration-count:infinite;animation-fill-mode:forwards;animation-duration:0.625s" ><g transform="translate(128,-128)" style="transform:matrix(1, 0, 0, 1, 128, -128);animation-play-state:paused" ><g transform="matrix(-0.0456 0.999 -0.999 -0.0456 207.6542 -74.2389) translate(139.293,62.081500000000005) scale(0.5214666666666667)" style="transform:matrix(-0.0237789, 0.520945, -0.520945, -0.0237789, 139.283, 62.0839);animation-play-state:paused" ><g data-icon="" transform="scale(0.9)" style="transform:matrix(0.9, 0, 0, 0.9, 0, 0);animation-play-state:paused" ><use xlink:href="#id-0.3795489948169726" x="-50" y="-50" style="animation-play-state:paused" ></use></g></g></g></g>
<g data-idx="3" data-dup="" dx="-128" dy="-128" style="transform-origin:76.0703px -99.7254px;animation-timing-function:linear;animation-play-state:paused;animation-name:static-aaaa9710-da2d-41a2-a9b7-c5329fd7860e;animation-iteration-count:infinite;animation-fill-mode:forwards;animation-duration:0.625s" ><g transform="translate(-128,-128)" style="transform:matrix(1, 0, 0, 1, -128, -128);animation-play-state:paused" ><g transform="matrix(0.2398 -0.9708 0.9708 0.2398 127.6881 219.61) translate(204.074,28.271) scale(0.3916444444444444)" style="transform:matrix(0.0939163, -0.380208, 0.380208, 0.0939163, 204.071, 28.2743);animation-play-state:paused" ><g data-icon="" transform="scale(0.9)" style="transform:matrix(0.9, 0, 0, 0.9, 0, 0);animation-play-state:paused" ><use xlink:href="#id-0.3795489948169726" x="-50" y="-50" style="animation-play-state:paused" ></use></g></g></g></g>
<g data-idx="3" data-dup="" dx="128" dy="-128" style="transform-origin:332.07px -99.7254px;animation-timing-function:linear;animation-play-state:paused;animation-name:static-aaaa9710-da2d-41a2-a9b7-c5329fd7860e;animation-iteration-count:infinite;animation-fill-mode:forwards;animation-duration:0.625s" ><g transform="translate(128,-128)" style="transform:matrix(1, 0, 0, 1, 128, -128);animation-play-state:paused" ><g transform="matrix(0.2398 -0.9708 0.9708 0.2398 127.6881 219.61) translate(204.074,28.271) scale(0.3916444444444444)" style="transform:matrix(0.0939163, -0.380208, 0.380208, 0.0939163, 204.071, 28.2743);animation-play-state:paused" ><g data-icon="" transform="scale(0.9)" style="transform:matrix(0.9, 0, 0, 0.9, 0, 0);animation-play-state:paused" ><use xlink:href="#id-0.3795489948169726" x="-50" y="-50" style="animation-play-state:paused" ></use></g></g></g></g>
<g data-idx="4" data-dup="" dx="-128" dy="-128" style="transform-origin:73.3081px 94.0843px;animation-timing-function:linear;animation-play-state:paused;animation-name:static-aaaa9710-da2d-41a2-a9b7-c5329fd7860e;animation-iteration-count:infinite;animation-fill-mode:forwards;animation-duration:0.625s" ><g transform="translate(-128,-128)" style="transform:matrix(1, 0, 0, 1, -128, -128);animation-play-state:paused" ><g transform="matrix(0.5905 -0.8071 0.8071 0.5905 -96.797 253.4085) translate(201.293,222.0815) scale(0.5214666666666667)" style="transform:matrix(0.307926, -0.420876, 0.420876, 0.307926, 201.309, 222.084);animation-play-state:paused" ><g data-icon="" transform="scale(0.9)" style="transform:matrix(0.9, 0, 0, 0.9, 0, 0);animation-play-state:paused" ><use xlink:href="#id-0.3795489948169726" x="-50" y="-50" style="animation-play-state:paused" ></use></g></g></g></g>
<g data-idx="4" data-dup="" dx="128" dy="-128" style="transform-origin:329.308px 94.0843px;animation-timing-function:linear;animation-play-state:paused;animation-name:static-aaaa9710-da2d-41a2-a9b7-c5329fd7860e;animation-iteration-count:infinite;animation-fill-mode:forwards;animation-duration:0.625s" ><g transform="translate(128,-128)" style="transform:matrix(1, 0, 0, 1, 128, -128);animation-play-state:paused" ><g transform="matrix(0.5905 -0.8071 0.8071 0.5905 -96.797 253.4085) translate(201.293,222.0815) scale(0.5214666666666667)" style="transform:matrix(0.307926, -0.420876, 0.420876, 0.307926, 201.309, 222.084);animation-play-state:paused" ><g data-icon="" transform="scale(0.9)" style="transform:matrix(0.9, 0, 0, 0.9, 0, 0);animation-play-state:paused" ><use xlink:href="#id-0.3795489948169726" x="-50" y="-50" style="animation-play-state:paused" ></use></g></g></g></g>
<g data-idx="5" data-dup="" dx="-128" dy="-128" style="transform-origin:-19.4976px 79.1699px;animation-timing-function:linear;animation-play-state:paused;animation-name:static-aaaa9710-da2d-41a2-a9b7-c5329fd7860e;animation-iteration-count:infinite;animation-fill-mode:forwards;animation-duration:0.625s" ><g transform="translate(-128,-128)" style="transform:matrix(1, 0, 0, 1, -128, -128);animation-play-state:paused" ><g transform="matrix(0.8618 0.5073 -0.5073 0.8618 120.0863 -26.4095) translate(108.50649999999999,207.1645) scale(0.44135555555555556)" style="transform:matrix(0.38036, 0.2239, -0.2239, 0.38036, 108.503, 207.17);animation-play-state:paused" ><g data-icon="" transform="scale(0.9)" style="transform:matrix(0.9, 0, 0, 0.9, 0, 0);animation-play-state:paused" ><use xlink:href="#id-0.3795489948169726" x="-50" y="-50" style="animation-play-state:paused" ></use></g></g></g></g>
<g data-idx="5" data-dup="" dx="128" dy="-128" style="transform-origin:236.502px 79.1699px;animation-timing-function:linear;animation-play-state:paused;animation-name:static-aaaa9710-da2d-41a2-a9b7-c5329fd7860e;animation-iteration-count:infinite;animation-fill-mode:forwards;animation-duration:0.625s" ><g transform="translate(128,-128)" style="transform:matrix(1, 0, 0, 1, 128, -128);animation-play-state:paused" ><g transform="matrix(0.8618 0.5073 -0.5073 0.8618 120.0863 -26.4095) translate(108.50649999999999,207.1645) scale(0.44135555555555556)" style="transform:matrix(0.38036, 0.2239, -0.2239, 0.38036, 108.503, 207.17);animation-play-state:paused" ><g data-icon="" transform="scale(0.9)" style="transform:matrix(0.9, 0, 0, 0.9, 0, 0);animation-play-state:paused" ><use xlink:href="#id-0.3795489948169726" x="-50" y="-50" style="animation-play-state:paused" ></use></g></g></g></g>
<g data-idx="6" data-dup="" dx="-128" dy="-128" style="transform-origin:-48.5436px -1.89085px;animation-timing-function:linear;animation-play-state:paused;animation-name:static-aaaa9710-da2d-41a2-a9b7-c5329fd7860e;animation-iteration-count:infinite;animation-fill-mode:forwards;animation-duration:0.625s" ><g transform="translate(-128,-128)" style="transform:matrix(1, 0, 0, 1, -128, -128);animation-play-state:paused" ><g transform="matrix(0.9981 0.0609 -0.0609 0.9981 7.8271 -4.6047) translate(79.461,126.11449999999999) scale(0.43675555555555556)" style="transform:matrix(0.435926, 0.0265984, -0.0265984, 0.435926, 79.4568, 126.109);animation-play-state:paused" ><g data-icon="" transform="scale(0.9)" style="transform:matrix(0.9, 0, 0, 0.9, 0, 0);animation-play-state:paused" ><use xlink:href="#id-0.3795489948169726" x="-50" y="-50" style="animation-play-state:paused" ></use></g></g></g></g>
<g data-idx="6" data-dup="" dx="128" dy="-128" style="transform-origin:207.456px -1.89085px;animation-timing-function:linear;animation-play-state:paused;animation-name:static-aaaa9710-da2d-41a2-a9b7-c5329fd7860e;animation-iteration-count:infinite;animation-fill-mode:forwards;animation-duration:0.625s" ><g transform="translate(128,-128)" style="transform:matrix(1, 0, 0, 1, 128, -128);animation-play-state:paused" ><g transform="matrix(0.9981 0.0609 -0.0609 0.9981 7.8271 -4.6047) translate(79.461,126.11449999999999) scale(0.43675555555555556)" style="transform:matrix(0.435926, 0.0265984, -0.0265984, 0.435926, 79.4568, 126.109);animation-play-state:paused" ><g data-icon="" transform="scale(0.9)" style="transform:matrix(0.9, 0, 0, 0.9, 0, 0);animation-play-state:paused" ><use xlink:href="#id-0.3795489948169726" x="-50" y="-50" style="animation-play-state:paused" ></use></g></g></g></g>
<g data-idx="7" data-dup="" dx="-128" dy="-128" style="transform-origin:-67.5403px -95.8895px;animation-timing-function:linear;animation-play-state:paused;animation-name:static-aaaa9710-da2d-41a2-a9b7-c5329fd7860e;animation-iteration-count:infinite;animation-fill-mode:forwards;animation-duration:0.625s" ><g transform="translate(-128,-128)" style="transform:matrix(1, 0, 0, 1, -128, -128);animation-play-state:paused" ><g transform="matrix(-0.7024 0.7118 -0.7118 -0.7024 125.7862 11.6317) translate(60.461,32.1145) scale(0.43675555555555556)" style="transform:matrix(-0.306777, 0.310883, -0.310883, -0.306777, 60.4593, 32.1106);animation-play-state:paused" ><g data-icon="" transform="scale(0.9)" style="transform:matrix(0.9, 0, 0, 0.9, 0, 0);animation-play-state:paused" ><use xlink:href="#id-0.3795489948169726" x="-50" y="-50" style="animation-play-state:paused" ></use></g></g></g></g>
<g data-idx="7" data-dup="" dx="128" dy="-128" style="transform-origin:188.46px -95.8895px;animation-timing-function:linear;animation-play-state:paused;animation-name:static-aaaa9710-da2d-41a2-a9b7-c5329fd7860e;animation-iteration-count:infinite;animation-fill-mode:forwards;animation-duration:0.625s" ><g transform="translate(128,-128)" style="transform:matrix(1, 0, 0, 1, 128, -128);animation-play-state:paused" ><g transform="matrix(-0.7024 0.7118 -0.7118 -0.7024 125.7862 11.6317) translate(60.461,32.1145) scale(0.43675555555555556)" style="transform:matrix(-0.306777, 0.310883, -0.310883, -0.306777, 60.4593, 32.1106);animation-play-state:paused" ><g data-icon="" transform="scale(0.9)" style="transform:matrix(0.9, 0, 0, 0.9, 0, 0);animation-play-state:paused" ><use xlink:href="#id-0.3795489948169726" x="-50" y="-50" style="animation-play-state:paused" ></use></g></g></g></g>
<g data-idx="8" data-dup="" dx="-128" dy="-128" style="transform-origin:-94.3949px -44.2719px;animation-timing-function:linear;animation-play-state:paused;animation-name:static-aaaa9710-da2d-41a2-a9b7-c5329fd7860e;animation-iteration-count:infinite;animation-fill-mode:forwards;animation-duration:0.625s" ><g transform="translate(-128,-128)" style="transform:matrix(1, 0, 0, 1, -128, -128);animation-play-state:paused" ><g transform="matrix(0.8596 0.511 -0.511 0.8596 47.5053 -5.4135) translate(33.602,83.7265) scale(0.3879111111111111)" style="transform:matrix(0.333448, 0.198223, -0.198223, 0.333448, 33.6053, 83.7284);animation-play-state:paused" ><g data-icon="" transform="scale(0.9)" style="transform:matrix(0.9, 0, 0, 0.9, 0, 0);animation-play-state:paused" ><use xlink:href="#id-0.3795489948169726" x="-50" y="-50" style="animation-play-state:paused" ></use></g></g></g></g>
<g data-idx="8" data-dup="" dx="128" dy="-128" style="transform-origin:161.605px -44.2719px;animation-timing-function:linear;animation-play-state:paused;animation-name:static-aaaa9710-da2d-41a2-a9b7-c5329fd7860e;animation-iteration-count:infinite;animation-fill-mode:forwards;animation-duration:0.625s" ><g transform="translate(128,-128)" style="transform:matrix(1, 0, 0, 1, 128, -128);animation-play-state:paused" ><g transform="matrix(0.8596 0.511 -0.511 0.8596 47.5053 -5.4135) translate(33.602,83.7265) scale(0.3879111111111111)" style="transform:matrix(0.333448, 0.198223, -0.198223, 0.333448, 33.6053, 83.7284);animation-play-state:paused" ><g data-icon="" transform="scale(0.9)" style="transform:matrix(0.9, 0, 0, 0.9, 0, 0);animation-play-state:paused" ><use xlink:href="#id-0.3795489948169726" x="-50" y="-50" style="animation-play-state:paused" ></use></g></g></g></g>
<g data-idx="9" data-dup="" dx="-128" dy="-128" style="transform-origin:-83.8003px 76.6334px;animation-timing-function:linear;animation-play-state:paused;animation-name:static-aaaa9710-da2d-41a2-a9b7-c5329fd7860e;animation-iteration-count:infinite;animation-fill-mode:forwards;animation-duration:0.625s" ><g transform="translate(-128,-128)" style="transform:matrix(1, 0, 0, 1, -128, -128);animation-play-state:paused" ><g transform="matrix(0.5692 -0.8222 0.8222 0.5692 -149.2038 124.5031) translate(44.2025,204.6265) scale(0.5011777777777778)" style="transform:matrix(0.28527, -0.412068, 0.412068, 0.28527, 44.2002, 204.633);animation-play-state:paused" ><g data-icon="" transform="scale(0.9)" style="transform:matrix(0.9, 0, 0, 0.9, 0, 0);animation-play-state:paused" ><use xlink:href="#id-0.3795489948169726" x="-50" y="-50" style="animation-play-state:paused" ></use></g></g></g></g>
<g data-idx="9" data-dup="" dx="128" dy="-128" style="transform-origin:172.2px 76.6334px;animation-timing-function:linear;animation-play-state:paused;animation-name:static-aaaa9710-da2d-41a2-a9b7-c5329fd7860e;animation-iteration-count:infinite;animation-fill-mode:forwards;animation-duration:0.625s" ><g transform="translate(128,-128)" style="transform:matrix(1, 0, 0, 1, 128, -128);animation-play-state:paused" ><g transform="matrix(0.5692 -0.8222 0.8222 0.5692 -149.2038 124.5031) translate(44.2025,204.6265) scale(0.5011777777777778)" style="transform:matrix(0.28527, -0.412068, 0.412068, 0.28527, 44.2002, 204.633);animation-play-state:paused" ><g data-icon="" transform="scale(0.9)" style="transform:matrix(0.9, 0, 0, 0.9, 0, 0);animation-play-state:paused" ><use xlink:href="#id-0.3795489948169726" x="-50" y="-50" style="animation-play-state:paused" ></use></g></g></g></g>
<g data-idx="0" data-dup="" dx="-128" dy="128" style="transform-origin:22.9994px 277.999px;animation-timing-function:linear;animation-play-state:paused;animation-name:static-aaaa9710-da2d-41a2-a9b7-c5329fd7860e;animation-iteration-count:infinite;animation-fill-mode:forwards;animation-duration:0.625s" ><g transform="translate(-128,128)" style="transform:matrix(1, 0, 0, 1, -128, 128);animation-play-state:paused" ><g transform=" translate(151,149.9995) scale(0.6222222222222222)" style="transform:matrix(0.622222, 0, 0, 0.622222, 151, 149.999);animation-play-state:paused" ><g data-icon="" transform="scale(0.9)" style="transform:matrix(0.9, 0, 0, 0.9, 0, 0);animation-play-state:paused" ><use xlink:href="#id-0.3795489948169726" x="-50" y="-50" style="animation-play-state:paused" ></use></g></g></g></g>
<g data-idx="0" data-dup="" dx="128" dy="128" style="transform-origin:278.999px 277.999px;animation-timing-function:linear;animation-play-state:paused;animation-name:static-aaaa9710-da2d-41a2-a9b7-c5329fd7860e;animation-iteration-count:infinite;animation-fill-mode:forwards;animation-duration:0.625s" ><g transform="translate(128,128)" style="transform:matrix(1, 0, 0, 1, 128, 128);animation-play-state:paused" ><g transform=" translate(151,149.9995) scale(0.6222222222222222)" style="transform:matrix(0.622222, 0, 0, 0.622222, 151, 149.999);animation-play-state:paused" ><g data-icon="" transform="scale(0.9)" style="transform:matrix(0.9, 0, 0, 0.9, 0, 0);animation-play-state:paused" ><use xlink:href="#id-0.3795489948169726" x="-50" y="-50" style="animation-play-state:paused" ></use></g></g></g></g>
<g data-idx="1" data-dup="" dx="-128" dy="128" style="transform-origin:103.301px 249.081px;animation-timing-function:linear;animation-play-state:paused;animation-name:static-aaaa9710-da2d-41a2-a9b7-c5329fd7860e;animation-iteration-count:infinite;animation-fill-mode:forwards;animation-duration:0.625s" ><g transform="translate(-128,128)" style="transform:matrix(1, 0, 0, 1, -128, 128);animation-play-state:paused" ><g transform="matrix(0.9628 0.2703 -0.2703 0.9628 41.3411 -58.0147) translate(231.293,121.08149999999999) scale(0.5214666666666667)" style="transform:matrix(0.502068, 0.140952, -0.140952, 0.502068, 231.302, 121.081);animation-play-state:paused" ><g data-icon="" transform="scale(0.9)" style="transform:matrix(0.9, 0, 0, 0.9, 0, 0);animation-play-state:paused" ><use xlink:href="#id-0.3795489948169726" x="-50" y="-50" style="animation-play-state:paused" ></use></g></g></g></g>
<g data-idx="1" data-dup="" dx="128" dy="128" style="transform-origin:359.301px 249.081px;animation-timing-function:linear;animation-play-state:paused;animation-name:static-aaaa9710-da2d-41a2-a9b7-c5329fd7860e;animation-iteration-count:infinite;animation-fill-mode:forwards;animation-duration:0.625s" ><g transform="translate(128,128)" style="transform:matrix(1, 0, 0, 1, 128, 128);animation-play-state:paused" ><g transform="matrix(0.9628 0.2703 -0.2703 0.9628 41.3411 -58.0147) translate(231.293,121.08149999999999) scale(0.5214666666666667)" style="transform:matrix(0.502068, 0.140952, -0.140952, 0.502068, 231.302, 121.081);animation-play-state:paused" ><g data-icon="" transform="scale(0.9)" style="transform:matrix(0.9, 0, 0, 0.9, 0, 0);animation-play-state:paused" ><use xlink:href="#id-0.3795489948169726" x="-50" y="-50" style="animation-play-state:paused" ></use></g></g></g></g>
<g data-idx="2" data-dup="" dx="-128" dy="128" style="transform-origin:11.2833px 190.083px;animation-timing-function:linear;animation-play-state:paused;animation-name:static-aaaa9710-da2d-41a2-a9b7-c5329fd7860e;animation-iteration-count:infinite;animation-fill-mode:forwards;animation-duration:0.625s" ><g transform="translate(-128,128)" style="transform:matrix(1, 0, 0, 1, -128, 128);animation-play-state:paused" ><g transform="matrix(-0.0456 0.999 -0.999 -0.0456 207.6542 -74.2389) translate(139.293,62.081500000000005) scale(0.5214666666666667)" style="transform:matrix(-0.0237789, 0.520945, -0.520945, -0.0237789, 139.283, 62.0839);animation-play-state:paused" ><g data-icon="" transform="scale(0.9)" style="transform:matrix(0.9, 0, 0, 0.9, 0, 0);animation-play-state:paused" ><use xlink:href="#id-0.3795489948169726" x="-50" y="-50" style="animation-play-state:paused" ></use></g></g></g></g>
<g data-idx="2" data-dup="" dx="128" dy="128" style="transform-origin:267.283px 190.083px;animation-timing-function:linear;animation-play-state:paused;animation-name:static-aaaa9710-da2d-41a2-a9b7-c5329fd7860e;animation-iteration-count:infinite;animation-fill-mode:forwards;animation-duration:0.625s" ><g transform="translate(128,128)" style="transform:matrix(1, 0, 0, 1, 128, 128);animation-play-state:paused" ><g transform="matrix(-0.0456 0.999 -0.999 -0.0456 207.6542 -74.2389) translate(139.293,62.081500000000005) scale(0.5214666666666667)" style="transform:matrix(-0.0237789, 0.520945, -0.520945, -0.0237789, 139.283, 62.0839);animation-play-state:paused" ><g data-icon="" transform="scale(0.9)" style="transform:matrix(0.9, 0, 0, 0.9, 0, 0);animation-play-state:paused" ><use xlink:href="#id-0.3795489948169726" x="-50" y="-50" style="animation-play-state:paused" ></use></g></g></g></g>
<g data-idx="3" data-dup="" dx="-128" dy="128" style="transform-origin:76.0703px 156.275px;animation-timing-function:linear;animation-play-state:paused;animation-name:static-aaaa9710-da2d-41a2-a9b7-c5329fd7860e;animation-iteration-count:infinite;animation-fill-mode:forwards;animation-duration:0.625s" ><g transform="translate(-128,128)" style="transform:matrix(1, 0, 0, 1, -128, 128);animation-play-state:paused" ><g transform="matrix(0.2398 -0.9708 0.9708 0.2398 127.6881 219.61) translate(204.074,28.271) scale(0.3916444444444444)" style="transform:matrix(0.0939163, -0.380208, 0.380208, 0.0939163, 204.071, 28.2743);animation-play-state:paused" ><g data-icon="" transform="scale(0.9)" style="transform:matrix(0.9, 0, 0, 0.9, 0, 0);animation-play-state:paused" ><use xlink:href="#id-0.3795489948169726" x="-50" y="-50" style="animation-play-state:paused" ></use></g></g></g></g>
<g data-idx="3" data-dup="" dx="128" dy="128" style="transform-origin:332.07px 156.275px;animation-timing-function:linear;animation-play-state:paused;animation-name:static-aaaa9710-da2d-41a2-a9b7-c5329fd7860e;animation-iteration-count:infinite;animation-fill-mode:forwards;animation-duration:0.625s" ><g transform="translate(128,128)" style="transform:matrix(1, 0, 0, 1, 128, 128);animation-play-state:paused" ><g transform="matrix(0.2398 -0.9708 0.9708 0.2398 127.6881 219.61) translate(204.074,28.271) scale(0.3916444444444444)" style="transform:matrix(0.0939163, -0.380208, 0.380208, 0.0939163, 204.071, 28.2743);animation-play-state:paused" ><g data-icon="" transform="scale(0.9)" style="transform:matrix(0.9, 0, 0, 0.9, 0, 0);animation-play-state:paused" ><use xlink:href="#id-0.3795489948169726" x="-50" y="-50" style="animation-play-state:paused" ></use></g></g></g></g>
<g data-idx="4" data-dup="" dx="-128" dy="128" style="transform-origin:73.3081px 350.084px;animation-timing-function:linear;animation-play-state:paused;animation-name:static-aaaa9710-da2d-41a2-a9b7-c5329fd7860e;animation-iteration-count:infinite;animation-fill-mode:forwards;animation-duration:0.625s" ><g transform="translate(-128,128)" style="transform:matrix(1, 0, 0, 1, -128, 128);animation-play-state:paused" ><g transform="matrix(0.5905 -0.8071 0.8071 0.5905 -96.797 253.4085) translate(201.293,222.0815) scale(0.5214666666666667)" style="transform:matrix(0.307926, -0.420876, 0.420876, 0.307926, 201.309, 222.084);animation-play-state:paused" ><g data-icon="" transform="scale(0.9)" style="transform:matrix(0.9, 0, 0, 0.9, 0, 0);animation-play-state:paused" ><use xlink:href="#id-0.3795489948169726" x="-50" y="-50" style="animation-play-state:paused" ></use></g></g></g></g>
<g data-idx="4" data-dup="" dx="128" dy="128" style="transform-origin:329.308px 350.084px;animation-timing-function:linear;animation-play-state:paused;animation-name:static-aaaa9710-da2d-41a2-a9b7-c5329fd7860e;animation-iteration-count:infinite;animation-fill-mode:forwards;animation-duration:0.625s" ><g transform="translate(128,128)" style="transform:matrix(1, 0, 0, 1, 128, 128);animation-play-state:paused" ><g transform="matrix(0.5905 -0.8071 0.8071 0.5905 -96.797 253.4085) translate(201.293,222.0815) scale(0.5214666666666667)" style="transform:matrix(0.307926, -0.420876, 0.420876, 0.307926, 201.309, 222.084);animation-play-state:paused" ><g data-icon="" transform="scale(0.9)" style="transform:matrix(0.9, 0, 0, 0.9, 0, 0);animation-play-state:paused" ><use xlink:href="#id-0.3795489948169726" x="-50" y="-50" style="animation-play-state:paused" ></use></g></g></g></g>
<g data-idx="5" data-dup="" dx="-128" dy="128" style="transform-origin:-19.4976px 335.17px;animation-timing-function:linear;animation-play-state:paused;animation-name:static-aaaa9710-da2d-41a2-a9b7-c5329fd7860e;animation-iteration-count:infinite;animation-fill-mode:forwards;animation-duration:0.625s" ><g transform="translate(-128,128)" style="transform:matrix(1, 0, 0, 1, -128, 128);animation-play-state:paused" ><g transform="matrix(0.8618 0.5073 -0.5073 0.8618 120.0863 -26.4095) translate(108.50649999999999,207.1645) scale(0.44135555555555556)" style="transform:matrix(0.38036, 0.2239, -0.2239, 0.38036, 108.503, 207.17);animation-play-state:paused" ><g data-icon="" transform="scale(0.9)" style="transform:matrix(0.9, 0, 0, 0.9, 0, 0);animation-play-state:paused" ><use xlink:href="#id-0.3795489948169726" x="-50" y="-50" style="animation-play-state:paused" ></use></g></g></g></g>
<g data-idx="5" data-dup="" dx="128" dy="128" style="transform-origin:236.502px 335.17px;animation-timing-function:linear;animation-play-state:paused;animation-name:static-aaaa9710-da2d-41a2-a9b7-c5329fd7860e;animation-iteration-count:infinite;animation-fill-mode:forwards;animation-duration:0.625s" ><g transform="translate(128,128)" style="transform:matrix(1, 0, 0, 1, 128, 128);animation-play-state:paused" ><g transform="matrix(0.8618 0.5073 -0.5073 0.8618 120.0863 -26.4095) translate(108.50649999999999,207.1645) scale(0.44135555555555556)" style="transform:matrix(0.38036, 0.2239, -0.2239, 0.38036, 108.503, 207.17);animation-play-state:paused" ><g data-icon="" transform="scale(0.9)" style="transform:matrix(0.9, 0, 0, 0.9, 0, 0);animation-play-state:paused" ><use xlink:href="#id-0.3795489948169726" x="-50" y="-50" style="animation-play-state:paused" ></use></g></g></g></g>
<g data-idx="6" data-dup="" dx="-128" dy="128" style="transform-origin:-48.5436px 254.109px;animation-timing-function:linear;animation-play-state:paused;animation-name:static-aaaa9710-da2d-41a2-a9b7-c5329fd7860e;animation-iteration-count:infinite;animation-fill-mode:forwards;animation-duration:0.625s" ><g transform="translate(-128,128)" style="transform:matrix(1, 0, 0, 1, -128, 128);animation-play-state:paused" ><g transform="matrix(0.9981 0.0609 -0.0609 0.9981 7.8271 -4.6047) translate(79.461,126.11449999999999) scale(0.43675555555555556)" style="transform:matrix(0.435926, 0.0265984, -0.0265984, 0.435926, 79.4568, 126.109);animation-play-state:paused" ><g data-icon="" transform="scale(0.9)" style="transform:matrix(0.9, 0, 0, 0.9, 0, 0);animation-play-state:paused" ><use xlink:href="#id-0.3795489948169726" x="-50" y="-50" style="animation-play-state:paused" ></use></g></g></g></g>
<g data-idx="6" data-dup="" dx="128" dy="128" style="transform-origin:207.456px 254.109px;animation-timing-function:linear;animation-play-state:paused;animation-name:static-aaaa9710-da2d-41a2-a9b7-c5329fd7860e;animation-iteration-count:infinite;animation-fill-mode:forwards;animation-duration:0.625s" ><g transform="translate(128,128)" style="transform:matrix(1, 0, 0, 1, 128, 128);animation-play-state:paused" ><g transform="matrix(0.9981 0.0609 -0.0609 0.9981 7.8271 -4.6047) translate(79.461,126.11449999999999) scale(0.43675555555555556)" style="transform:matrix(0.435926, 0.0265984, -0.0265984, 0.435926, 79.4568, 126.109);animation-play-state:paused" ><g data-icon="" transform="scale(0.9)" style="transform:matrix(0.9, 0, 0, 0.9, 0, 0);animation-play-state:paused" ><use xlink:href="#id-0.3795489948169726" x="-50" y="-50" style="animation-play-state:paused" ></use></g></g></g></g>
<g data-idx="7" data-dup="" dx="-128" dy="128" style="transform-origin:-67.5403px 160.11px;animation-timing-function:linear;animation-play-state:paused;animation-name:static-aaaa9710-da2d-41a2-a9b7-c5329fd7860e;animation-iteration-count:infinite;animation-fill-mode:forwards;animation-duration:0.625s" ><g transform="translate(-128,128)" style="transform:matrix(1, 0, 0, 1, -128, 128);animation-play-state:paused" ><g transform="matrix(-0.7024 0.7118 -0.7118 -0.7024 125.7862 11.6317) translate(60.461,32.1145) scale(0.43675555555555556)" style="transform:matrix(-0.306777, 0.310883, -0.310883, -0.306777, 60.4593, 32.1106);animation-play-state:paused" ><g data-icon="" transform="scale(0.9)" style="transform:matrix(0.9, 0, 0, 0.9, 0, 0);animation-play-state:paused" ><use xlink:href="#id-0.3795489948169726" x="-50" y="-50" style="animation-play-state:paused" ></use></g></g></g></g>
<g data-idx="7" data-dup="" dx="128" dy="128" style="transform-origin:188.46px 160.11px;animation-timing-function:linear;animation-play-state:paused;animation-name:static-aaaa9710-da2d-41a2-a9b7-c5329fd7860e;animation-iteration-count:infinite;animation-fill-mode:forwards;animation-duration:0.625s" ><g transform="translate(128,128)" style="transform:matrix(1, 0, 0, 1, 128, 128);animation-play-state:paused" ><g transform="matrix(-0.7024 0.7118 -0.7118 -0.7024 125.7862 11.6317) translate(60.461,32.1145) scale(0.43675555555555556)" style="transform:matrix(-0.306777, 0.310883, -0.310883, -0.306777, 60.4593, 32.1106);animation-play-state:paused" ><g data-icon="" transform="scale(0.9)" style="transform:matrix(0.9, 0, 0, 0.9, 0, 0);animation-play-state:paused" ><use xlink:href="#id-0.3795489948169726" x="-50" y="-50" style="animation-play-state:paused" ></use></g></g></g></g>
<g data-idx="8" data-dup="" dx="-128" dy="128" style="transform-origin:-94.3949px 211.728px;animation-timing-function:linear;animation-play-state:paused;animation-name:static-aaaa9710-da2d-41a2-a9b7-c5329fd7860e;animation-iteration-count:infinite;animation-fill-mode:forwards;animation-duration:0.625s" ><g transform="translate(-128,128)" style="transform:matrix(1, 0, 0, 1, -128, 128);animation-play-state:paused" ><g transform="matrix(0.8596 0.511 -0.511 0.8596 47.5053 -5.4135) translate(33.602,83.7265) scale(0.3879111111111111)" style="transform:matrix(0.333448, 0.198223, -0.198223, 0.333448, 33.6053, 83.7284);animation-play-state:paused" ><g data-icon="" transform="scale(0.9)" style="transform:matrix(0.9, 0, 0, 0.9, 0, 0);animation-play-state:paused" ><use xlink:href="#id-0.3795489948169726" x="-50" y="-50" style="animation-play-state:paused" ></use></g></g></g></g>
<g data-idx="8" data-dup="" dx="128" dy="128" style="transform-origin:161.605px 211.728px;animation-timing-function:linear;animation-play-state:paused;animation-name:static-aaaa9710-da2d-41a2-a9b7-c5329fd7860e;animation-iteration-count:infinite;animation-fill-mode:forwards;animation-duration:0.625s" ><g transform="translate(128,128)" style="transform:matrix(1, 0, 0, 1, 128, 128);animation-play-state:paused" ><g transform="matrix(0.8596 0.511 -0.511 0.8596 47.5053 -5.4135) translate(33.602,83.7265) scale(0.3879111111111111)" style="transform:matrix(0.333448, 0.198223, -0.198223, 0.333448, 33.6053, 83.7284);animation-play-state:paused" ><g data-icon="" transform="scale(0.9)" style="transform:matrix(0.9, 0, 0, 0.9, 0, 0);animation-play-state:paused" ><use xlink:href="#id-0.3795489948169726" x="-50" y="-50" style="animation-play-state:paused" ></use></g></g></g></g>
<g data-idx="9" data-dup="" dx="-128" dy="128" style="transform-origin:-83.8003px 332.633px;animation-timing-function:linear;animation-play-state:paused;animation-name:static-aaaa9710-da2d-41a2-a9b7-c5329fd7860e;animation-iteration-count:infinite;animation-fill-mode:forwards;animation-duration:0.625s" ><g transform="translate(-128,128)" style="transform:matrix(1, 0, 0, 1, -128, 128);animation-play-state:paused" ><g transform="matrix(0.5692 -0.8222 0.8222 0.5692 -149.2038 124.5031) translate(44.2025,204.6265) scale(0.5011777777777778)" style="transform:matrix(0.28527, -0.412068, 0.412068, 0.28527, 44.2002, 204.633);animation-play-state:paused" ><g data-icon="" transform="scale(0.9)" style="transform:matrix(0.9, 0, 0, 0.9, 0, 0);animation-play-state:paused" ><use xlink:href="#id-0.3795489948169726" x="-50" y="-50" style="animation-play-state:paused" ></use></g></g></g></g>
<g data-idx="9" data-dup="" dx="128" dy="128" style="transform-origin:172.2px 332.633px;animation-timing-function:linear;animation-play-state:paused;animation-name:static-aaaa9710-da2d-41a2-a9b7-c5329fd7860e;animation-iteration-count:infinite;animation-fill-mode:forwards;animation-duration:0.625s" ><g transform="translate(128,128)" style="transform:matrix(1, 0, 0, 1, 128, 128);animation-play-state:paused" ><g transform="matrix(0.5692 -0.8222 0.8222 0.5692 -149.2038 124.5031) translate(44.2025,204.6265) scale(0.5011777777777778)" style="transform:matrix(0.28527, -0.412068, 0.412068, 0.28527, 44.2002, 204.633);animation-play-state:paused" ><g data-icon="" transform="scale(0.9)" style="transform:matrix(0.9, 0, 0, 0.9, 0, 0);animation-play-state:paused" ><use xlink:href="#id-0.3795489948169726" x="-50" y="-50" style="animation-play-state:paused" ></use></g></g></g></g></g></svg>